<mxfile host="app.diagrams.net" modified="2024-02-27T19:46:27.109Z" agent="Mozilla/5.0 (X11; Linux x86_64) AppleWebKit/537.36 (KHTML, like Gecko) Chrome/121.0.0.0 Safari/537.36" etag="hMnkCRDMSxPFL2jBClY7" version="23.1.7" type="github">
  <diagram id="R2lEEEUBdFMjLlhIrx00" name="Page-1">
    <mxGraphModel dx="2058" dy="1103" grid="1" gridSize="10" guides="1" tooltips="1" connect="1" arrows="1" fold="1" page="1" pageScale="1" pageWidth="850" pageHeight="1100" math="0" shadow="0" extFonts="Permanent Marker^https://fonts.googleapis.com/css?family=Permanent+Marker">
      <root>
        <mxCell id="0" />
        <mxCell id="1" parent="0" />
        <mxCell id="D924VpzKZGNG5bENjpo5-1" value="" style="rounded=1;whiteSpace=wrap;html=1;container=0;" parent="1" vertex="1">
          <mxGeometry x="300" y="160" width="160" height="200" as="geometry" />
        </mxCell>
        <mxCell id="D924VpzKZGNG5bENjpo5-13" value="" style="group" parent="1" vertex="1" connectable="0">
          <mxGeometry x="40" y="280" width="160" height="60" as="geometry" />
        </mxCell>
        <mxCell id="D924VpzKZGNG5bENjpo5-7" value="" style="rounded=1;whiteSpace=wrap;html=1;container=0;" parent="D924VpzKZGNG5bENjpo5-13" vertex="1">
          <mxGeometry width="160" height="60" as="geometry" />
        </mxCell>
        <mxCell id="D924VpzKZGNG5bENjpo5-8" value="ECoS" style="text;html=1;strokeColor=none;fillColor=none;align=center;verticalAlign=middle;whiteSpace=wrap;rounded=0;container=0;" parent="D924VpzKZGNG5bENjpo5-13" vertex="1">
          <mxGeometry x="50" y="25.503" width="60" height="9" as="geometry" />
        </mxCell>
        <mxCell id="D924VpzKZGNG5bENjpo5-24" value="Bolt" style="text;html=1;strokeColor=none;fillColor=none;align=center;verticalAlign=middle;whiteSpace=wrap;rounded=0;" parent="1" vertex="1">
          <mxGeometry x="220" y="160" width="60" height="30" as="geometry" />
        </mxCell>
        <mxCell id="D924VpzKZGNG5bENjpo5-25" value="WebSocket" style="text;html=1;strokeColor=none;fillColor=none;align=center;verticalAlign=middle;whiteSpace=wrap;rounded=0;" parent="1" vertex="1">
          <mxGeometry x="480" y="160" width="60" height="30" as="geometry" />
        </mxCell>
        <mxCell id="D924VpzKZGNG5bENjpo5-26" value="WebSocket" style="text;html=1;strokeColor=none;fillColor=none;align=center;verticalAlign=middle;whiteSpace=wrap;rounded=0;" parent="1" vertex="1">
          <mxGeometry x="220" y="280" width="60" height="30" as="geometry" />
        </mxCell>
        <mxCell id="D924VpzKZGNG5bENjpo5-27" value="" style="group" parent="1" vertex="1" connectable="0">
          <mxGeometry x="310" y="170" width="140" height="50" as="geometry" />
        </mxCell>
        <mxCell id="D924VpzKZGNG5bENjpo5-20" value="" style="rounded=1;whiteSpace=wrap;html=1;container=0;" parent="D924VpzKZGNG5bENjpo5-27" vertex="1">
          <mxGeometry width="140" height="50" as="geometry" />
        </mxCell>
        <mxCell id="D924VpzKZGNG5bENjpo5-21" value="Frontend" style="text;html=1;strokeColor=none;fillColor=none;align=center;verticalAlign=middle;whiteSpace=wrap;rounded=0;container=0;" parent="D924VpzKZGNG5bENjpo5-27" vertex="1">
          <mxGeometry x="52.5" y="18.754166666666666" width="35" height="12.5" as="geometry" />
        </mxCell>
        <mxCell id="D924VpzKZGNG5bENjpo5-2" value="" style="rounded=1;whiteSpace=wrap;html=1;container=0;" parent="1" vertex="1">
          <mxGeometry x="40" y="160" width="160" height="60.00000000000001" as="geometry" />
        </mxCell>
        <mxCell id="D924VpzKZGNG5bENjpo5-18" value="" style="endArrow=classic;startArrow=classic;html=1;rounded=0;exitX=1;exitY=0.5;exitDx=0;exitDy=0;" parent="1" source="D924VpzKZGNG5bENjpo5-2" edge="1">
          <mxGeometry width="50" height="50" relative="1" as="geometry">
            <mxPoint x="210" y="290" as="sourcePoint" />
            <mxPoint x="300" y="190" as="targetPoint" />
          </mxGeometry>
        </mxCell>
        <mxCell id="D924VpzKZGNG5bENjpo5-5" value="Neo4j Graph DB" style="text;html=1;strokeColor=none;fillColor=none;align=center;verticalAlign=middle;whiteSpace=wrap;rounded=0;container=0;" parent="1" vertex="1">
          <mxGeometry x="70" y="185.5" width="100" height="9" as="geometry" />
        </mxCell>
        <mxCell id="D924VpzKZGNG5bENjpo5-17" value="" style="endArrow=classic;html=1;rounded=0;exitX=0;exitY=0.5;exitDx=0;exitDy=0;" parent="1" source="D924VpzKZGNG5bENjpo5-3" edge="1">
          <mxGeometry width="50" height="50" relative="1" as="geometry">
            <mxPoint x="560" y="320" as="sourcePoint" />
            <mxPoint x="460" y="190" as="targetPoint" />
          </mxGeometry>
        </mxCell>
        <mxCell id="pVQe80lLJ30uKZcCYDwY-3" value="" style="group" parent="1" vertex="1" connectable="0">
          <mxGeometry x="560" y="160" width="160" height="60" as="geometry" />
        </mxCell>
        <mxCell id="D924VpzKZGNG5bENjpo5-3" value="" style="rounded=1;whiteSpace=wrap;html=1;container=0;" parent="pVQe80lLJ30uKZcCYDwY-3" vertex="1">
          <mxGeometry width="160" height="60" as="geometry" />
        </mxCell>
        <mxCell id="D924VpzKZGNG5bENjpo5-6" value="GTCommand" style="text;html=1;strokeColor=none;fillColor=none;align=center;verticalAlign=middle;whiteSpace=wrap;rounded=0;container=0;" parent="pVQe80lLJ30uKZcCYDwY-3" vertex="1">
          <mxGeometry x="30" y="25.502999999999986" width="100" height="9" as="geometry" />
        </mxCell>
        <mxCell id="D924VpzKZGNG5bENjpo5-4" value="EBL Coords" style="text;html=1;strokeColor=none;fillColor=none;align=center;verticalAlign=middle;whiteSpace=wrap;rounded=0;container=0;" parent="1" vertex="1">
          <mxGeometry x="330" y="255.37" width="100" height="9.26" as="geometry" />
        </mxCell>
        <mxCell id="SI389RHZB-7-OpBMgLP5-1" value="" style="endArrow=classic;startArrow=classic;html=1;rounded=0;entryX=0;entryY=0.75;entryDx=0;entryDy=0;" parent="1" source="D924VpzKZGNG5bENjpo5-7" target="D924VpzKZGNG5bENjpo5-1" edge="1">
          <mxGeometry width="50" height="50" relative="1" as="geometry">
            <mxPoint x="280" y="490" as="sourcePoint" />
            <mxPoint x="330" y="440" as="targetPoint" />
          </mxGeometry>
        </mxCell>
        <mxCell id="SI389RHZB-7-OpBMgLP5-2" value="Benutzer" style="shape=umlActor;verticalLabelPosition=bottom;verticalAlign=top;html=1;outlineConnect=0;" parent="1" vertex="1">
          <mxGeometry x="365" y="20" width="30" height="60" as="geometry" />
        </mxCell>
        <mxCell id="SI389RHZB-7-OpBMgLP5-3" value="" style="endArrow=classic;startArrow=classic;html=1;rounded=0;entryX=0.5;entryY=0;entryDx=0;entryDy=0;" parent="1" target="D924VpzKZGNG5bENjpo5-20" edge="1">
          <mxGeometry width="50" height="50" relative="1" as="geometry">
            <mxPoint x="380" y="100" as="sourcePoint" />
            <mxPoint x="390" y="80" as="targetPoint" />
          </mxGeometry>
        </mxCell>
        <mxCell id="SI389RHZB-7-OpBMgLP5-7" value="1" style="text;html=1;align=center;verticalAlign=middle;whiteSpace=wrap;rounded=0;" parent="1" vertex="1">
          <mxGeometry x="190" y="190" width="30" height="30" as="geometry" />
        </mxCell>
        <mxCell id="SI389RHZB-7-OpBMgLP5-8" value="*" style="text;html=1;align=center;verticalAlign=middle;whiteSpace=wrap;rounded=0;" parent="1" vertex="1">
          <mxGeometry x="280" y="190" width="30" height="30" as="geometry" />
        </mxCell>
        <mxCell id="SI389RHZB-7-OpBMgLP5-9" value="1" style="text;html=1;align=center;verticalAlign=middle;whiteSpace=wrap;rounded=0;" parent="1" vertex="1">
          <mxGeometry x="460" y="190" width="20" height="30" as="geometry" />
        </mxCell>
        <mxCell id="SI389RHZB-7-OpBMgLP5-10" value="1" style="text;html=1;align=center;verticalAlign=middle;whiteSpace=wrap;rounded=0;" parent="1" vertex="1">
          <mxGeometry x="540" y="190" width="20" height="30" as="geometry" />
        </mxCell>
        <mxCell id="SI389RHZB-7-OpBMgLP5-12" value="1" style="text;html=1;align=center;verticalAlign=middle;whiteSpace=wrap;rounded=0;" parent="1" vertex="1">
          <mxGeometry x="280" y="310" width="30" height="30" as="geometry" />
        </mxCell>
        <mxCell id="SI389RHZB-7-OpBMgLP5-13" value="*" style="text;html=1;align=center;verticalAlign=middle;whiteSpace=wrap;rounded=0;" parent="1" vertex="1">
          <mxGeometry x="190" y="310" width="30" height="30" as="geometry" />
        </mxCell>
        <mxCell id="JNQRp1OCR-runaura_zo-1" value="Betriebsanlage im EBL" style="ellipse;whiteSpace=wrap;html=1;" vertex="1" parent="1">
          <mxGeometry x="495" y="330" width="290" height="140" as="geometry" />
        </mxCell>
        <mxCell id="JNQRp1OCR-runaura_zo-2" value="" style="endArrow=classic;startArrow=classic;html=1;rounded=0;exitX=0.5;exitY=1;exitDx=0;exitDy=0;entryX=0;entryY=0.5;entryDx=0;entryDy=0;" edge="1" parent="1" source="D924VpzKZGNG5bENjpo5-7" target="JNQRp1OCR-runaura_zo-1">
          <mxGeometry width="50" height="50" relative="1" as="geometry">
            <mxPoint x="120" y="410" as="sourcePoint" />
            <mxPoint x="280" y="410" as="targetPoint" />
            <Array as="points">
              <mxPoint x="120" y="400" />
            </Array>
          </mxGeometry>
        </mxCell>
        <mxCell id="JNQRp1OCR-runaura_zo-3" value="" style="endArrow=classic;html=1;rounded=0;entryX=0.5;entryY=1;entryDx=0;entryDy=0;exitX=0.5;exitY=0;exitDx=0;exitDy=0;" edge="1" parent="1" source="JNQRp1OCR-runaura_zo-1" target="D924VpzKZGNG5bENjpo5-3">
          <mxGeometry width="50" height="50" relative="1" as="geometry">
            <mxPoint x="610" y="320" as="sourcePoint" />
            <mxPoint x="660" y="270" as="targetPoint" />
          </mxGeometry>
        </mxCell>
        <mxCell id="JNQRp1OCR-runaura_zo-4" value="1" style="text;html=1;align=center;verticalAlign=middle;whiteSpace=wrap;rounded=0;" vertex="1" parent="1">
          <mxGeometry x="450" y="380" width="60" height="30" as="geometry" />
        </mxCell>
        <mxCell id="JNQRp1OCR-runaura_zo-5" value="*" style="text;html=1;align=center;verticalAlign=middle;whiteSpace=wrap;rounded=0;" vertex="1" parent="1">
          <mxGeometry x="100" y="340" width="60" height="30" as="geometry" />
        </mxCell>
        <mxCell id="JNQRp1OCR-runaura_zo-6" value="1" style="text;html=1;align=center;verticalAlign=middle;whiteSpace=wrap;rounded=0;" vertex="1" parent="1">
          <mxGeometry x="600" y="300" width="60" height="30" as="geometry" />
        </mxCell>
        <mxCell id="JNQRp1OCR-runaura_zo-7" value="1" style="text;html=1;align=center;verticalAlign=middle;whiteSpace=wrap;rounded=0;" vertex="1" parent="1">
          <mxGeometry x="600" y="220" width="60" height="30" as="geometry" />
        </mxCell>
      </root>
    </mxGraphModel>
  </diagram>
</mxfile>
